<svg width="72" height="72" viewBox="0 0 72 72" fill="none" xmlns="http://www.w3.org/2000/svg">
<g filter="url(#filter0_d_268_4610)">
<circle cx="36" cy="34" r="32" fill="#FF9626"/>
<path d="M22.8947 47.0659C22.8947 46.8028 22.8947 46.6449 22.8947 46.487C22.8947 37.5923 22.8947 28.6975 22.8947 19.8554C22.8947 19.6975 22.8947 19.5396 22.8947 19.3817C22.9473 18.8028 23.421 18.4344 23.9999 18.487C24.3683 18.5396 24.6841 18.5923 25.1052 18.6449C25.1052 18.0133 25.1052 17.3817 25.1052 16.8028C25.1052 16.487 25.1052 16.1712 25.1052 15.8554C25.1052 14.9607 25.7368 14.4344 26.5789 14.5396C27.4736 14.6449 28.421 14.7501 29.3157 14.8554C31.9999 15.1712 34.7368 15.487 37.421 15.8028C38.421 15.908 39.421 16.0659 40.421 16.1712C41.2104 16.2765 41.6315 16.7501 41.6841 17.5396C41.6841 18.4344 41.6841 19.3291 41.6841 20.2238C41.6841 20.5923 41.7894 20.8028 42.1578 20.8028C42.4736 20.8028 42.7894 20.8554 43.1052 20.908C43.6315 21.0133 43.8947 21.3291 43.9473 21.8554C43.9473 21.9607 43.9473 22.1186 43.9473 22.2238C43.9473 28.4344 43.9473 34.5923 43.9473 40.8028C43.9473 40.9607 43.9473 41.1186 43.9473 41.2765C45.9999 40.7501 47.842 41.1186 49.4736 42.4344C50.7368 43.487 51.421 44.8554 51.6315 46.487C51.9999 49.5396 49.7894 52.4344 46.6841 52.9607C43.5262 53.5396 40.2631 51.487 39.6841 47.8028C38.8947 47.8028 38.0526 47.8028 37.2631 47.8028C32.6315 47.8028 28.0526 47.8028 23.421 47.8028C22.5789 47.8028 21.6841 47.8028 20.842 47.7501C20.5789 47.7501 20.2104 47.8028 20.2104 47.3817C20.2104 46.9607 20.5262 46.9607 20.7894 46.9607C21.5262 47.0659 22.2104 47.0659 22.8947 47.0659ZM39.6841 47.0133C39.6841 46.908 39.6841 46.8554 39.6841 46.8028C39.842 44.5396 40.9473 42.8028 42.9999 41.6975C43.1052 41.6449 43.2104 41.4344 43.2104 41.2765C43.2104 34.908 43.2104 28.487 43.2104 22.1186C43.2104 21.8554 43.1578 21.6975 42.842 21.6449C40.4736 21.3291 38.1578 21.0659 35.7894 20.7501C33.0526 20.3817 30.3683 20.0133 27.6315 19.6975C26.9473 19.5923 26.2631 19.5923 25.5789 19.487C25.0526 19.4344 24.6315 19.3291 24.1578 19.2765C23.7368 19.1712 23.7368 19.2238 23.7368 19.6975C23.7368 28.6975 23.7368 37.6449 23.7368 46.6449C23.7368 46.8028 23.7368 46.908 23.7368 47.0133C25.6841 47.0133 27.5789 47.0133 29.4736 47.0133C29.4736 44.9607 29.4736 42.9607 29.4736 40.9607C29.4736 40.1186 29.7894 39.7501 30.6315 39.7501C32.5262 39.7501 34.421 39.7501 36.2631 39.7501C37.1052 39.7501 37.421 40.0659 37.421 40.9607C37.421 42.8554 37.421 44.6975 37.421 46.5923C37.421 46.7501 37.421 46.8554 37.421 47.0133C38.2104 47.0133 38.9473 47.0133 39.6841 47.0133ZM45.6315 41.908C42.4736 41.9607 40.2104 44.6449 40.4736 47.5923C40.6841 49.9607 42.6841 52.3291 45.6841 52.2765C48.5789 52.2765 50.8947 49.8554 50.842 46.9607C50.842 44.1712 48.4736 41.8554 45.6315 41.908ZM25.9473 18.6975C30.9473 19.3291 35.8947 20.0133 40.842 20.6449C40.842 20.5923 40.8947 20.5923 40.8947 20.5396C40.8947 19.487 40.8947 18.487 40.8947 17.4344C40.8947 17.1186 40.6841 17.0133 40.421 16.9607C39.7894 16.908 39.1052 16.8028 38.4736 16.7501C35.9999 16.4344 33.5262 16.1712 31.0526 15.8554C29.5789 15.6975 28.0526 15.487 26.5789 15.3291C26.2631 15.2765 25.9999 15.487 25.9999 15.7501C25.9473 16.6975 25.9473 17.6975 25.9473 18.6975ZM36.6315 47.0133C36.6315 46.908 36.6315 46.8028 36.6315 46.6975C36.6315 44.8028 36.6315 42.8554 36.6315 40.9607C36.6315 40.5923 36.5262 40.5396 36.2104 40.5396C34.3683 40.5396 32.4736 40.5396 30.6315 40.5396C30.3157 40.5396 30.1578 40.6449 30.1578 40.9607C30.1578 42.8554 30.1578 44.8028 30.1578 46.6975C30.1578 46.8028 30.1578 46.908 30.2104 47.0133C32.3683 47.0133 34.4736 47.0133 36.6315 47.0133Z" fill="#FEFDFB" stroke="#FEFDFB" stroke-width="0.8"/>
<path d="M28.1051 27.5922C27.7893 27.5922 27.4735 27.5922 27.1577 27.5922C26.5788 27.5396 26.1577 27.1185 26.1577 26.5396C26.1577 26.0133 26.1577 25.487 26.1577 24.9606C26.1577 24.3817 26.5261 23.9606 27.1577 23.908C27.8419 23.8554 28.4735 23.8554 29.1577 23.908C29.7367 23.9606 30.1051 24.3291 30.1577 24.908C30.2103 25.487 30.2103 26.0133 30.1577 26.5922C30.1051 27.1712 29.7367 27.5396 29.1577 27.5922C28.7367 27.6448 28.4209 27.5922 28.1051 27.5922ZM28.1051 26.8027C28.3682 26.8027 28.6314 26.8027 28.8946 26.8027C29.1577 26.8027 29.263 26.6975 29.263 26.4343C29.263 26.0133 29.263 25.5396 29.263 25.1185C29.263 24.8554 29.1577 24.7501 28.8946 24.7501C28.3682 24.7501 27.7893 24.7501 27.263 24.7501C26.9998 24.7501 26.8946 24.8554 26.8946 25.1185C26.8946 25.5396 26.8946 26.0133 26.8946 26.4343C26.8946 26.6975 26.9998 26.8554 27.263 26.8027C27.5788 26.8027 27.8419 26.8027 28.1051 26.8027Z" fill="#FEFDFB" stroke="#FEFDFB" stroke-width="0.3"/>
<path d="M38.7892 27.5922C38.4734 27.5922 38.105 27.5922 37.7892 27.5922C37.2102 27.5396 36.8418 27.1185 36.8418 26.5396C36.8418 26.0133 36.8418 25.487 36.8418 24.9606C36.8418 24.3817 37.2102 23.9606 37.7892 23.908C38.4734 23.8554 39.105 23.8554 39.7892 23.908C40.3681 23.9606 40.7365 24.3291 40.7365 24.9606C40.7365 25.487 40.7365 26.0133 40.7365 26.5396C40.7365 27.1712 40.3155 27.5396 39.7365 27.5922C39.4207 27.6448 39.105 27.5922 38.7892 27.5922ZM38.7892 26.8027C39.0523 26.8027 39.3155 26.8027 39.5786 26.8027C39.8418 26.8027 39.9997 26.6975 39.9997 26.4343C39.9997 26.0133 39.9997 25.5396 39.9997 25.1185C39.9997 24.8554 39.8944 24.7501 39.5786 24.7501C39.0523 24.7501 38.526 24.7501 37.9471 24.7501C37.6839 24.7501 37.5786 24.8554 37.5786 25.1185C37.5786 25.5922 37.5786 26.0133 37.5786 26.487C37.5786 26.7501 37.6839 26.8554 37.9471 26.8554C38.2628 26.8027 38.526 26.8027 38.7892 26.8027Z" fill="#FEFDFB" stroke="#FEFDFB" stroke-width="0.3"/>
<path d="M33.4208 23.9081C33.7366 23.9081 34.0524 23.9081 34.3682 23.9081C34.9471 23.9607 35.3682 24.3291 35.3682 24.9081C35.3682 25.4344 35.3682 26.0133 35.3682 26.5397C35.3682 27.1186 34.9471 27.487 34.3682 27.5397C33.684 27.5923 33.0524 27.5923 32.3682 27.5397C31.8419 27.487 31.4208 27.1186 31.4208 26.5923C31.3682 26.0133 31.3682 25.4344 31.4208 24.8555C31.4735 24.2765 31.8419 23.9081 32.4208 23.9081C32.7892 23.9081 33.105 23.9081 33.4208 23.9081ZM33.4208 26.8028C33.684 26.8028 33.9998 26.8028 34.2629 26.8028C34.5261 26.8028 34.6313 26.6976 34.6313 26.4344C34.6313 25.9607 34.6313 25.487 34.6313 25.0133C34.6313 24.9081 34.4208 24.6976 34.3156 24.6976C33.7366 24.6449 33.1577 24.6449 32.5787 24.6976C32.4735 24.6976 32.3156 24.9081 32.3156 25.0133C32.2629 25.487 32.3156 25.9607 32.3156 26.487C32.3156 26.6976 32.4208 26.8028 32.6313 26.8028C32.8419 26.8028 33.1577 26.8028 33.4208 26.8028Z" fill="#FEFDFB" stroke="#FEFDFB" stroke-width="0.3"/>
<path d="M33.421 29.1712C33.7368 29.1712 34.1052 29.1712 34.421 29.1712C35 29.2238 35.3684 29.5922 35.421 30.1712C35.421 30.6975 35.421 31.2764 35.421 31.8027C35.421 32.3817 35 32.8027 34.4737 32.8027C33.7894 32.8554 33.1579 32.8554 32.4737 32.8027C31.8947 32.8027 31.5263 32.3817 31.5263 31.8554C31.4737 31.2764 31.4737 30.6975 31.5263 30.0659C31.5789 29.5396 31.9473 29.1712 32.4737 29.1185C32.7894 29.1185 33.1052 29.1712 33.421 29.1712ZM33.421 32.0659C33.6842 32.0659 34 32.0659 34.2631 32.0659C34.4737 32.0659 34.6316 31.9606 34.6316 31.7501C34.6316 31.2764 34.6316 30.8027 34.6316 30.2764C34.6316 30.1712 34.421 29.9606 34.3158 29.9606C33.7368 29.908 33.2105 29.9606 32.6316 29.9606C32.3684 29.9606 32.2631 30.0659 32.2631 30.3291C32.2631 30.7501 32.2631 31.2238 32.2631 31.6448C32.2631 32.0133 32.421 32.1185 32.7368 32.1185C32.9473 32.0133 33.2105 32.0659 33.421 32.0659Z" fill="#FEFDFB" stroke="#FEFDFB" stroke-width="0.3"/>
<path d="M33.4208 34.3817C33.7366 34.3817 34.0524 34.3817 34.3682 34.3817C34.9471 34.4343 35.3682 34.8028 35.3682 35.3817C35.3682 35.908 35.3682 36.487 35.3682 37.0133C35.3682 37.5922 34.9471 37.9607 34.3682 38.0133C33.684 38.0659 33.0524 38.0659 32.3682 38.0133C31.7892 37.9607 31.4208 37.5922 31.4208 37.0659C31.3682 36.487 31.3682 35.908 31.4208 35.3291C31.4735 34.7501 31.8419 34.3817 32.4208 34.3817C32.7892 34.3817 33.105 34.3817 33.4208 34.3817ZM33.4735 35.1712C33.1577 35.1712 32.8945 35.1712 32.5787 35.1712C32.3682 35.1712 32.2629 35.2765 32.2629 35.487C32.2629 35.9607 32.2629 36.4343 32.2629 36.9607C32.2629 37.1712 32.3682 37.2765 32.5787 37.2765C33.1577 37.2765 33.684 37.2765 34.2629 37.2765C34.5261 37.2765 34.6313 37.1712 34.6313 36.908C34.6313 36.4343 34.6313 35.9607 34.6313 35.487C34.6313 35.2765 34.5261 35.1186 34.2629 35.1186C33.9998 35.1712 33.7366 35.1712 33.4735 35.1712Z" fill="#FEFDFB" stroke="#FEFDFB" stroke-width="0.3"/>
<path d="M28.105 29.1712C28.4208 29.1712 28.7366 29.1712 29.0523 29.1712C29.6313 29.2239 29.9997 29.5923 30.0523 30.1712C30.105 30.7502 30.105 31.3291 30.0523 31.9081C29.9997 32.4344 29.6313 32.8554 29.105 32.8554C28.4208 32.9081 27.7366 32.9081 27.0523 32.8554C26.4734 32.8028 26.105 32.3817 26.105 31.8554C26.105 31.3291 26.105 30.8028 26.105 30.2239C26.105 29.6449 26.526 29.2239 27.105 29.1712C27.4734 29.1186 27.7892 29.1712 28.105 29.1712ZM28.105 32.066C28.3681 32.066 28.6839 32.066 28.9471 32.066C29.2102 32.066 29.3155 31.9607 29.3155 31.6975C29.3155 31.2239 29.3155 30.8028 29.3155 30.3291C29.3155 30.066 29.2102 29.9607 28.8945 29.9607C28.3681 29.9607 27.8418 29.9607 27.2629 29.9607C26.9997 29.9607 26.8945 30.066 26.8945 30.3291C26.8945 30.8028 26.8945 31.2239 26.8945 31.6975C26.8945 31.9607 26.9997 32.066 27.2629 32.066C27.5787 32.0133 27.8418 32.066 28.105 32.066Z" fill="#FEFDFB" stroke="#FEFDFB" stroke-width="0.3"/>
<path d="M28.105 34.3817C28.4208 34.3817 28.7892 34.3817 29.105 34.3817C29.6313 34.4343 29.9997 34.8028 30.0523 35.3291C30.105 35.908 30.105 36.487 30.0523 37.1186C29.9997 37.6449 29.6313 38.0133 29.105 38.0659C28.4208 38.1186 27.7366 38.1186 27.0523 38.0659C26.4734 38.0133 26.105 37.5922 26.105 37.0659C26.105 36.5396 26.105 36.0133 26.105 35.4343C26.105 34.8554 26.526 34.4343 27.105 34.4343C27.4208 34.3817 27.7892 34.3817 28.105 34.3817ZM28.105 35.1712C27.8418 35.1712 27.5787 35.1712 27.3155 35.1712C27.0523 35.1712 26.8945 35.2765 26.8945 35.5396C26.8945 35.9607 26.8945 36.4343 26.8945 36.8554C26.8945 37.1186 26.9997 37.2238 27.3155 37.2238C27.8418 37.2238 28.3681 37.2238 28.9471 37.2238C29.2102 37.2238 29.3155 37.1186 29.3155 36.8554C29.3155 36.3817 29.3155 35.9607 29.3155 35.487C29.3155 35.2238 29.2102 35.1186 28.9471 35.1186C28.6313 35.1712 28.3681 35.1712 28.105 35.1712Z" fill="#FEFDFB" stroke="#FEFDFB" stroke-width="0.3"/>
<path d="M38.7896 29.1712C39.1053 29.1712 39.4211 29.1712 39.7369 29.1712C40.3159 29.2239 40.7369 29.5923 40.7369 30.1712C40.7369 30.6975 40.7369 31.2765 40.7369 31.8028C40.7369 32.3291 40.3685 32.7502 39.7896 32.8028C39.1053 32.8554 38.4211 32.8554 37.7369 32.8028C37.2106 32.7502 36.8422 32.3291 36.7896 31.8028C36.7896 31.2765 36.7896 30.6975 36.7896 30.1712C36.7896 29.6449 37.2106 29.2239 37.7369 29.1712C38.1053 29.1186 38.4211 29.1712 38.7896 29.1712ZM38.7369 32.066C39.0527 32.066 39.3159 32.066 39.6317 32.066C39.8422 32.066 40.0001 31.9607 40.0001 31.7502C40.0001 31.2765 40.0001 30.7502 40.0001 30.2765C40.0001 30.1712 39.7896 30.0133 39.6843 30.0133C39.1053 29.9607 38.5264 29.9607 37.9474 30.0133C37.8422 30.0133 37.6317 30.2239 37.6317 30.3291C37.579 30.8028 37.6317 31.2765 37.6317 31.7502C37.6317 32.0133 37.7896 32.1186 38.0001 32.1186C38.2106 32.066 38.4738 32.066 38.7369 32.066Z" fill="#FEFDFB" stroke="#FEFDFB" stroke-width="0.3"/>
<path d="M38.7892 34.3817C39.105 34.3817 39.4734 34.3817 39.7892 34.3817C40.3155 34.4343 40.7365 34.8028 40.7365 35.3817C40.7365 35.9607 40.7365 36.487 40.7365 37.0659C40.7365 37.5922 40.3681 38.0133 39.8418 38.0133C39.1576 38.0659 38.4207 38.0659 37.7365 38.0133C37.2102 37.9607 36.8418 37.5396 36.8418 37.0133C36.8418 36.487 36.8418 35.9607 36.8418 35.3817C36.8418 34.8028 37.2629 34.3817 37.8418 34.3817C38.1576 34.3817 38.4734 34.3817 38.7892 34.3817ZM38.7365 37.2765C38.9997 37.2765 39.3155 37.2765 39.5786 37.2765C39.8418 37.2765 39.9471 37.1712 39.9471 36.908C39.9471 36.4343 39.9471 36.0133 39.9471 35.5396C39.9471 35.2765 39.8418 35.1712 39.5786 35.1712C39.2102 35.1712 38.8418 35.1712 38.526 35.1712C37.526 35.1712 37.5786 35.0659 37.5786 36.1186C37.5786 37.487 37.4207 37.2765 38.7365 37.2765Z" fill="#FEFDFB" stroke="#FEFDFB" stroke-width="0.3"/>
<path d="M45.3156 46.6449C44.842 46.6449 44.4209 46.6449 43.9998 46.6449C43.7367 46.6449 43.4209 46.6449 43.4209 46.2765C43.4209 45.8555 43.7367 45.8555 43.9998 45.8555C44.4209 45.8555 44.842 45.8555 45.3156 45.8555C45.3156 45.487 45.3156 45.1186 45.3156 44.7502C45.3156 44.4344 45.3683 44.2239 45.7367 44.2239C46.0525 44.2239 46.1051 44.487 46.1051 44.7502C46.1051 45.1186 46.1051 45.487 46.1051 45.9081C46.5788 45.9081 46.9998 45.9081 47.4209 45.9081C47.6841 45.9081 47.9998 45.9081 47.9998 46.2765C47.9998 46.6449 47.7367 46.6976 47.4209 46.6976C46.9998 46.6976 46.5788 46.6976 46.1051 46.6976C46.1051 47.5923 46.1051 48.487 46.1051 49.3291C46.1051 49.6449 46.1577 50.0133 45.7367 50.066C45.4735 50.1186 45.3156 49.8555 45.3156 49.3291C45.3156 48.4344 45.3156 47.5923 45.3156 46.6449Z" fill="#FEFDFB" stroke="#FEFDFB" stroke-width="0.8"/>
</g>
<defs>
<filter id="filter0_d_268_4610" x="0" y="0" width="72" height="72" filterUnits="userSpaceOnUse" color-interpolation-filters="sRGB">
<feFlood flood-opacity="0" result="BackgroundImageFix"/>
<feColorMatrix in="SourceAlpha" type="matrix" values="0 0 0 0 0 0 0 0 0 0 0 0 0 0 0 0 0 0 127 0" result="hardAlpha"/>
<feOffset dy="2"/>
<feGaussianBlur stdDeviation="2"/>
<feComposite in2="hardAlpha" operator="out"/>
<feColorMatrix type="matrix" values="0 0 0 0 0 0 0 0 0 0 0 0 0 0 0 0 0 0 0.25 0"/>
<feBlend mode="normal" in2="BackgroundImageFix" result="effect1_dropShadow_268_4610"/>
<feBlend mode="normal" in="SourceGraphic" in2="effect1_dropShadow_268_4610" result="shape"/>
</filter>
</defs>
</svg>
